<?xml version="1.0" standalone="no"?>
<!DOCTYPE svg PUBLIC "-//W3C//DTD SVG 20010904//EN"
 "http://www.w3.org/TR/2001/REC-SVG-20010904/DTD/svg10.dtd">
<svg version="1.0" xmlns="http://www.w3.org/2000/svg"
 width="1024.000000pt" height="1024.000000pt" viewBox="0 0 1024.000000 1024.000000"
 preserveAspectRatio="xMidYMid meet">
<metadata>
Created by potrace 1.14, written by Peter Selinger 2001-2017
</metadata>
<g transform="translate(0.000000,1024.000000) scale(0.100000,-0.100000)"
fill="#000000" stroke="none">
<path d="M0 5120 l0 -5120 5120 0 5120 0 0 5120 0 5120 -5120 0 -5120 0 0
-5120z m2722 265 c-2 -135 0 -245 3 -245 4 0 20 9 35 20 51 36 134 70 174 70
62 0 122 -34 154 -88 27 -47 27 -49 30 -255 l3 -207 40 -20 c21 -11 39 -27 39
-35 0 -13 -25 -15 -159 -15 -96 0 -162 4 -166 10 -3 5 10 20 30 31 20 12 41
33 46 46 12 33 11 289 -1 335 -6 20 -25 49 -42 63 -28 23 -39 27 -81 22 -27
-2 -61 -13 -75 -24 l-27 -20 0 -199 0 -199 38 -18 c20 -10 37 -25 37 -33 0
-12 -27 -14 -167 -12 -105 2 -168 7 -167 13 1 6 18 19 38 30 21 11 42 28 47
38 12 21 7 764 -5 790 -5 10 -21 24 -37 33 -16 8 -29 20 -29 27 0 13 185 83
225 86 20 1 20 -4 17 -244z m1380 -211 c-2 -251 -1 -466 2 -479 4 -14 20 -27
46 -38 23 -9 40 -22 40 -31 0 -14 -22 -16 -170 -16 -188 0 -208 8 -125 48 l45
22 0 394 c0 383 -1 394 -21 420 -11 14 -27 26 -35 26 -17 0 -19 39 -1 44 6 2
53 17 102 34 50 17 97 31 105 31 13 1 15 -55 12 -455z m4290 -18 l-3 -474 42
-24 c23 -12 41 -27 41 -33 -1 -6 -65 -10 -167 -10 -102 0 -166 4 -167 10 -2 6
16 19 39 30 33 15 44 26 49 50 8 47 0 758 -10 778 -5 10 -21 24 -37 33 -16 8
-29 20 -29 27 0 13 185 83 225 86 20 1 20 -4 17 -473z m-6125 398 c32 -9 59
-23 67 -37 18 -27 41 -159 32 -182 -12 -33 -49 -13 -76 41 -34 69 -49 88 -90
113 -65 39 -168 22 -205 -35 -27 -42 -26 -111 3 -151 12 -18 80 -70 150 -116
197 -131 235 -181 235 -314 1 -174 -126 -283 -328 -283 -119 0 -229 42 -254
97 -7 15 -15 66 -18 114 -5 76 -4 87 12 93 24 9 38 -5 58 -61 41 -112 125
-183 218 -183 100 0 167 95 140 198 -17 60 -43 86 -159 156 -193 116 -242 177
-242 297 0 41 7 79 19 105 63 139 246 201 438 148z m4101 11 c23 -3 60 -12 81
-21 47 -19 59 -45 68 -152 l6 -74 -28 4 c-29 3 -31 5 -65 81 -30 65 -77 99
-144 105 -97 8 -156 -42 -156 -130 0 -69 15 -86 165 -185 141 -93 178 -125
211 -185 25 -46 29 -63 29 -133 -1 -140 -64 -226 -198 -267 -128 -38 -303 -11
-367 57 -31 33 -52 197 -29 221 16 16 49 10 49 -10 0 -30 61 -135 99 -169 50
-45 78 -57 135 -57 102 0 168 100 136 209 -14 49 -41 74 -169 153 -142 89
-173 116 -205 180 -29 58 -34 125 -14 190 16 53 80 124 140 154 48 24 150 44
193 38 11 -1 39 -5 63 -9z m-1861 -287 l-2 -63 103 -3 c111 -3 120 -8 108 -57
-6 -24 -9 -25 -94 -25 -48 0 -93 -4 -100 -9 -10 -6 -13 -49 -10 -198 3 -171 5
-193 22 -212 27 -30 78 -37 129 -17 54 20 57 20 57 -4 0 -23 -69 -72 -128 -91
-48 -16 -149 -6 -181 19 -60 44 -66 68 -71 297 l-5 210 -30 3 c-30 4 -45 16
-45 38 0 6 24 27 54 47 30 20 77 57 105 82 29 25 60 45 71 45 18 0 20 -6 17
-62z m1113 -94 l0 -67 44 41 c73 67 137 88 186 62 37 -20 43 -46 21 -95 -24
-54 -56 -66 -107 -41 -70 33 -126 13 -144 -52 -15 -54 -13 -324 3 -345 6 -9
30 -23 52 -30 22 -8 41 -22 43 -31 3 -15 -12 -16 -172 -14 -107 2 -177 7 -178
13 -2 6 15 19 37 31 l40 20 3 202 c3 219 6 202 -53 251 -24 19 -7 32 85 65 41
15 86 33 100 41 14 8 28 14 33 15 4 0 7 -30 7 -66z m-1977 35 c93 -25 176
-158 137 -219 -7 -12 -44 -16 -187 -20 l-178 -5 1 -63 c1 -53 6 -70 30 -104
38 -53 71 -77 123 -89 54 -12 112 3 165 42 51 37 66 25 41 -31 -36 -79 -116
-131 -215 -138 -157 -11 -276 107 -288 284 -8 129 41 233 142 302 75 50 149
64 229 41z m1551 -23 c54 -31 87 -82 94 -143 8 -70 -1 -73 -194 -73 -186 0
-191 -2 -181 -75 13 -95 70 -162 155 -185 57 -15 103 -4 162 36 58 40 60 40
60 14 0 -30 -23 -70 -62 -106 -58 -55 -95 -69 -183 -69 -70 0 -86 4 -128 28
-149 88 -190 308 -88 468 79 125 248 174 365 105z m1911 4 c65 -31 122 -90
152 -157 22 -48 25 -65 21 -137 -8 -132 -69 -230 -176 -283 -50 -25 -68 -28
-152 -28 -84 0 -102 3 -152 28 -103 50 -160 141 -162 257 -2 150 97 290 236
336 63 20 173 13 233 -16z m490 -198 c0 -204 2 -231 18 -256 41 -62 137 -65
189 -7 l28 31 0 165 c0 152 -2 167 -20 185 -11 11 -31 20 -44 20 -29 0 -57 25
-50 45 4 9 30 15 82 20 42 3 103 10 136 16 32 6 62 7 67 2 4 -4 4 -39 -1 -78
-11 -81 -11 -378 -1 -415 5 -20 14 -26 43 -28 69 -6 74 -62 6 -62 -17 0 -70
-13 -120 -30 -49 -16 -94 -30 -100 -30 -7 0 -8 19 -3 55 7 59 -1 68 -31 34
-10 -12 -46 -35 -79 -50 -110 -53 -204 -34 -253 50 -26 45 -27 51 -30 226 -1
99 -5 190 -7 203 -3 13 -20 29 -40 39 -58 28 -36 62 42 64 21 0 61 7 88 14 88
22 80 42 80 -213z"/>
<path d="M3515 5166 c-40 -18 -85 -71 -85 -102 0 -24 1 -24 105 -24 100 0 106
1 116 23 30 65 -64 135 -136 103z"/>
<path d="M5015 5166 c-42 -19 -75 -58 -78 -92 l-2 -29 99 -3 c64 -2 103 1 112
9 22 18 16 56 -13 88 -33 35 -77 45 -118 27z"/>
<path d="M6876 5149 c-43 -34 -58 -74 -63 -179 -7 -126 18 -219 76 -280 33
-35 43 -40 84 -40 56 0 102 35 116 88 30 113 21 259 -22 342 -43 83 -132 115
-191 69z"/>
</g>
</svg>
